<svg width="25" height="25" viewBox="0 0 25 25" fill="none" xmlns="http://www.w3.org/2000/svg">
<path d="M20.4082 4.71777L20.8622 3.82679L20.8622 3.82677L20.4082 4.71777ZM21.2822 5.5918L22.1732 5.13781L22.1732 5.13776L21.2822 5.5918ZM21.5 7.7002H20.5H21.5ZM21.5 10.2695L22.5 10.2708V10.2695H21.5ZM21.2695 10.5L21.2695 11.5L21.2708 11.5L21.2695 10.5ZM20.5 10.5L20.5 9.5L20.5 10.5ZM18.5 12.5H17.5H18.5ZM20.5 14.5L20.5 15.5H20.5V14.5ZM21.2695 14.5L21.2708 13.5H21.2695V14.5ZM21.5 14.7305L22.5 14.7305L22.5 14.7292L21.5 14.7305ZM21.2822 19.4082L22.1732 19.8622L22.1732 19.8622L21.2822 19.4082ZM20.4082 20.2822L20.8622 21.1732L20.8622 21.1732L20.4082 20.2822ZM6.7002 20.5L6.7002 19.5L6.7002 20.5ZM4.5918 20.2822L4.13776 21.1732L4.13781 21.1732L4.5918 20.2822ZM3.71777 19.4082L2.82677 19.8622L2.82679 19.8622L3.71777 19.4082ZM3.5 14.7305L2.5 14.7292V14.7305H3.5ZM3.73047 14.5L3.73047 13.5L3.72919 13.5L3.73047 14.5ZM6.5 12.5L7.5 12.5L6.5 12.5ZM4.5 10.5L4.5 9.5H4.5V10.5ZM3.73047 10.5L3.72919 11.5H3.73047V10.5ZM3.5 10.2695L2.5 10.2695L2.5 10.2708L3.5 10.2695ZM3.5 7.7002L4.5 7.7002L3.5 7.7002ZM3.71777 5.5918L2.82679 5.13776L2.82677 5.13781L3.71777 5.5918ZM4.5918 4.71777L4.13781 3.82677L4.13776 3.82679L4.5918 4.71777ZM6.7002 4.5V5.5V4.5ZM18.2998 4.5V5.5C18.8764 5.5 19.2488 5.50072 19.5324 5.52384C19.8043 5.546 19.9049 5.58367 19.9542 5.60878L20.4082 4.71777L20.8622 3.82677C20.4836 3.63389 20.0902 3.56267 19.6949 3.53045C19.3112 3.49917 18.8433 3.5 18.2998 3.5V4.5ZM20.4082 4.71777L19.9542 5.60876C20.1423 5.70462 20.2954 5.85771 20.3912 6.04583L21.2822 5.5918L22.1732 5.13776C21.8856 4.57338 21.4266 4.11439 20.8622 3.82679L20.4082 4.71777ZM21.2822 5.5918L20.3912 6.04579C20.4163 6.09506 20.454 6.19574 20.4762 6.46764C20.4993 6.75116 20.5 7.12355 20.5 7.7002L21.5 7.7002L22.5 7.7002C22.5 7.15673 22.5008 6.68884 22.4696 6.30514C22.4373 5.90983 22.3661 5.51636 22.1732 5.13781L21.2822 5.5918ZM21.5 7.7002H20.5V10.2695H21.5H22.5V7.7002H21.5ZM21.5 10.2695L20.5 10.2683C20.5005 9.84418 20.8442 9.50054 21.2683 9.5L21.2695 10.5L21.2708 11.5C21.9493 11.4991 22.4991 10.9493 22.5 10.2708L21.5 10.2695ZM21.2695 10.5V9.5H20.5V10.5V11.5H21.2695V10.5ZM20.5 10.5L20.5 9.5C18.8431 9.5 17.5 10.8431 17.5 12.5L18.5 12.5L19.5 12.5C19.5 11.9477 19.9477 11.5 20.5 11.5L20.5 10.5ZM18.5 12.5H17.5C17.5 14.1569 18.8431 15.5 20.5 15.5L20.5 14.5L20.5 13.5C19.9477 13.5 19.5 13.0523 19.5 12.5H18.5ZM20.5 14.5V15.5H21.2695V14.5V13.5H20.5V14.5ZM21.2695 14.5L21.2683 15.5C20.8442 15.4995 20.5005 15.1558 20.5 14.7317L21.5 14.7305L22.5 14.7292C22.4991 14.0507 21.9493 13.5009 21.2708 13.5L21.2695 14.5ZM21.5 14.7305H20.5V17.2998H21.5H22.5V14.7305H21.5ZM21.5 17.2998H20.5C20.5 17.8764 20.4993 18.2488 20.4762 18.5324C20.454 18.8043 20.4163 18.9049 20.3912 18.9542L21.2822 19.4082L22.1732 19.8622C22.3661 19.4836 22.4373 19.0902 22.4696 18.6949C22.5008 18.3112 22.5 17.8433 22.5 17.2998H21.5ZM21.2822 19.4082L20.3912 18.9542C20.2954 19.1423 20.1423 19.2954 19.9542 19.3912L20.4082 20.2822L20.8622 21.1732C21.4266 20.8856 21.8856 20.4266 22.1732 19.8622L21.2822 19.4082ZM20.4082 20.2822L19.9542 19.3912C19.9049 19.4163 19.8043 19.454 19.5324 19.4762C19.2488 19.4993 18.8764 19.5 18.2998 19.5V20.5V21.5C18.8433 21.5 19.3112 21.5008 19.6949 21.4696C20.0902 21.4373 20.4836 21.3661 20.8622 21.1732L20.4082 20.2822ZM18.2998 20.5V19.5H6.7002V20.5V21.5H18.2998V20.5ZM6.7002 20.5L6.7002 19.5C6.12355 19.5 5.75116 19.4993 5.46764 19.4762C5.19574 19.454 5.09506 19.4163 5.04579 19.3912L4.5918 20.2822L4.13781 21.1732C4.51636 21.3661 4.90983 21.4373 5.30514 21.4696C5.68884 21.5008 6.15673 21.5 6.7002 21.5L6.7002 20.5ZM4.5918 20.2822L5.04583 19.3912C4.85771 19.2954 4.70462 19.1423 4.60876 18.9542L3.71777 19.4082L2.82679 19.8622C3.11439 20.4266 3.57338 20.8856 4.13776 21.1732L4.5918 20.2822ZM3.71777 19.4082L4.60878 18.9542C4.58367 18.9049 4.546 18.8043 4.52384 18.5324C4.50072 18.2488 4.5 17.8764 4.5 17.2998H3.5H2.5C2.5 17.8433 2.49917 18.3112 2.53045 18.6949C2.56267 19.0902 2.63389 19.4836 2.82677 19.8622L3.71777 19.4082ZM3.5 17.2998H4.5V14.7305H3.5H2.5V17.2998H3.5ZM3.5 14.7305L4.5 14.7317C4.49946 15.1558 4.15582 15.4995 3.73174 15.5L3.73047 14.5L3.72919 13.5C3.05069 13.5009 2.50086 14.0507 2.5 14.7292L3.5 14.7305ZM3.73047 14.5V15.5H4.5V14.5V13.5H3.73047V14.5ZM4.5 14.5V15.5C6.15685 15.5 7.5 14.1569 7.5 12.5H6.5H5.5C5.5 13.0523 5.05228 13.5 4.5 13.5V14.5ZM6.5 12.5L7.5 12.5C7.5 10.8431 6.15685 9.5 4.5 9.5L4.5 10.5L4.5 11.5C5.05228 11.5 5.5 11.9477 5.5 12.5L6.5 12.5ZM4.5 10.5V9.5H3.73047V10.5V11.5H4.5V10.5ZM3.73047 10.5L3.73174 9.5C4.15582 9.50054 4.49946 9.84418 4.5 10.2683L3.5 10.2695L2.5 10.2708C2.50087 10.9493 3.05069 11.4991 3.72919 11.5L3.73047 10.5ZM3.5 10.2695H4.5V7.7002H3.5H2.5V10.2695H3.5ZM3.5 7.7002L4.5 7.7002C4.5 7.12355 4.50072 6.75116 4.52384 6.46764C4.546 6.19574 4.58367 6.09506 4.60878 6.04579L3.71777 5.5918L2.82677 5.13781C2.63389 5.51636 2.56267 5.90983 2.53045 6.30514C2.49917 6.68884 2.5 7.15673 2.5 7.7002L3.5 7.7002ZM3.71777 5.5918L4.60876 6.04583C4.70462 5.85771 4.85771 5.70462 5.04583 5.60876L4.5918 4.71777L4.13776 3.82679C3.57338 4.11439 3.11439 4.57338 2.82679 5.13776L3.71777 5.5918ZM4.5918 4.71777L5.04579 5.60878C5.09506 5.58367 5.19574 5.546 5.46764 5.52384C5.75116 5.50072 6.12355 5.5 6.7002 5.5L6.7002 4.5L6.7002 3.5C6.15673 3.5 5.68884 3.49917 5.30514 3.53045C4.90983 3.56267 4.51636 3.63389 4.13781 3.82677L4.5918 4.71777ZM6.7002 4.5V5.5H18.2998V4.5V3.5H6.7002V4.5Z" fill="currentColor"/>
<path d="M13.5 9.5V10.5" stroke="currentColor" stroke-width="2" stroke-linecap="round"/>
<path d="M13.5 4.5V5.5" stroke="currentColor" stroke-width="2" stroke-linecap="round"/>
<path d="M13.5 14.5V15.5" stroke="currentColor" stroke-width="2" stroke-linecap="round"/>
<path d="M13.5 19.5V20.5" stroke="currentColor" stroke-width="2" stroke-linecap="round"/>
</svg>
