<svg width="232" height="339" viewBox="0 0 232 339" fill="none" xmlns="http://www.w3.org/2000/svg">
<path d="M231.099 326.253C231.099 332.88 225.726 338.253 219.099 338.253L12 338.253C5.37257 338.253 -1.4422e-05 332.88 -1.41349e-05 326.253L-5.19899e-07 12C-2.32767e-07 5.37257 5.37258 -9.95481e-06 12 -9.66253e-06L97.5215 -5.89092e-06C97.5215 10.0442 105.592 18.1865 115.547 18.1865C125.347 18.1865 133.32 10.2969 133.566 0.469722L133.572 -4.30104e-06L219.099 -5.29215e-07C225.726 4.03493e-06 231.099 5.37259 231.099 12L231.099 326.253Z" fill="currentColor"/>
</svg>
